# xmcd CD database file
#
# Track frame offsets:
#	150
#	21980
#	44010
#
# Disc length: 876 seconds
#
# Revision: 0
# Processed by: cddbd v1.5.1PL2 Copyright (c) Steve Scherf et al.
# Submitted via: CDex 1.51
#
DISCID=23036a03
DTITLE=ＭＩＴＵＯ - 夏のＲｅｖｏｌｕｔｉｏｎ〜１９９４アサヒスーパードライＣＦソング〜
DYEAR=1994
DGENRE=J-POP
TTITLE0=夏のＲｅｖｏｌｕｔｉｏｎ
TTITLE1=ＷｉｔｈｏｕｔＹｏｕ
TTITLE2=夏のＲｅｖｏｌｕｔｉｏｎ（オリジナル・カラオケ）
EXTD=YEAR: 1994/3/16
EXTT0=
EXTT1=
EXTT2=
PLAYORDER=
